<svg aria-hidden="true" width="36" height="17" viewBox="0 0 12 17" role="presentation"><title>Account Icon</title><g stroke="none" stroke-width="1" fill="none" fill-rule="evenodd"><g fill="currentColor"><path d="M0.00759296079,17 C0.00253098693,15.7349558 0,15.0682892 0,15 C0,11.6862915 2.6862915,9 6,9 C9.3137085,9 12,11.6862915 12,15 L12,17 L10,17 L10,16 C10,13.2385763 9.04608154,11 6,11 C2.95391846,11 2,13.2385763 2,16 C2,16.0433938 2.0009811,16.3767271 2.00294329,17 L0.00759296081,17 Z" transform="translate(-1500.000000, -27.000000) translate(1422.000000, 26.000000) translate(78.000000, 1.000000)"></path><path d="M6,8 C3.790861,8 2,6.209139 2,4 C2,1.790861 3.790861,0 6,0 C8.209139,0 10,1.790861 10,4 C10,6.209139 8.209139,8 6,8 Z M6,6 C7.1045695,6 8,5.1045695 8,4 C8,2.8954305 7.1045695,2 6,2 C4.8954305,2 4,2.8954305 4,4 C4,5.1045695 4.8954305,6 6,6 Z" transform="translate(-1500.000000, -27.000000) translate(1422.000000, 26.000000) translate(78.000000, 1.000000)"></path></g></g></svg>